<svg xmlns="http://www.w3.org/2000/svg" xmlns:xlink="http://www.w3.org/1999/xlink" width="500" zoomAndPan="magnify" viewBox="0 0 375 374.999991" height="500" preserveAspectRatio="xMidYMid meet" version="1.0"><defs><g/><clipPath id="6ab9071b06"><path d="M 141 217 L 209 217 L 209 244.730469 L 141 244.730469 Z M 141 217 " clip-rule="nonzero"/></clipPath><clipPath id="9a22e47abf"><path d="M 143 224 L 188 224 L 188 244.730469 L 143 244.730469 Z M 143 224 " clip-rule="nonzero"/></clipPath><clipPath id="21b7e0f3d0"><path d="M 153 221 L 203 221 L 203 244.730469 L 153 244.730469 Z M 153 221 " clip-rule="nonzero"/></clipPath><clipPath id="10d67e6080"><path d="M 136.429688 129.230469 L 234.679688 129.230469 L 234.679688 161 L 136.429688 161 Z M 136.429688 129.230469 " clip-rule="nonzero"/></clipPath></defs><rect x="-37.5" width="450" fill="#ffffff" y="-37.499999" height="449.999989" fill-opacity="1"/><rect x="-37.5" width="450" fill="#ffffff" y="-37.499999" height="449.999989" fill-opacity="1"/><rect x="-37.5" width="450" fill="#fafff4" y="-37.499999" height="449.999989" fill-opacity="1"/><g fill="#181b13" fill-opacity="1"><g transform="translate(121.624991, 226.325133)"><g><path d="M 12.234375 2.265625 L 5.203125 7.28125 L 4.046875 5.65625 L 6.9375 3.59375 L 4.65625 0.40625 L 1.765625 2.46875 L 0.59375 0.84375 L 7.625 -4.171875 L 8.796875 -2.546875 L 6.03125 -0.578125 L 8.3125 2.609375 L 11.078125 0.640625 Z M 12.234375 2.265625 "/></g></g></g><g fill="#181b13" fill-opacity="1"><g transform="translate(130.658238, 238.081768)"><g><path d="M 6.671875 4.21875 L 5.546875 5.375 L 0.734375 0.71875 L 6.75 -5.484375 L 11.4375 -0.953125 L 10.3125 0.203125 L 7.0625 -2.953125 L 5.765625 -1.609375 L 8.640625 1.1875 L 7.5625 2.296875 L 4.6875 -0.5 L 3.296875 0.9375 Z M 6.671875 4.21875 "/></g></g></g><g fill="#181b13" fill-opacity="1"><g transform="translate(140.351071, 246.936424)"><g><path d="M 6.609375 2.21875 L 3.28125 -0.03125 L 1.609375 1.078125 L -0.09375 -0.0625 L 7.90625 -5.09375 L 9.5625 -3.984375 L 7.953125 5.34375 L 6.21875 4.171875 Z M 6.921875 0.59375 L 7.640625 -2.90625 L 4.65625 -0.9375 Z M 6.921875 0.59375 "/></g></g></g><g fill="#181b13" fill-opacity="1"><g transform="translate(152.469197, 254.469567)"><g><path d="M 4.453125 -7.46875 L 6.28125 -6.65625 L 3.421875 -0.25 L 7.375 1.515625 L 6.71875 3 L 0.9375 0.421875 Z M 4.453125 -7.46875 "/></g></g></g><g fill="#181b13" fill-opacity="1"><g transform="translate(163.781443, 259.103194)"><g><path d="M 4.515625 -6.0625 L 1.84375 -6.765625 L 2.265625 -8.328125 L 9.546875 -6.40625 L 9.125 -4.84375 L 6.453125 -5.546875 L 4.65625 1.234375 L 2.71875 0.71875 Z M 4.515625 -6.0625 "/></g></g></g><g fill="#181b13" fill-opacity="1"><g transform="translate(175.917023, 261.989244)"><g><path d="M 9.640625 -7.875 L 8.921875 0.734375 L 6.921875 0.578125 L 7.21875 -2.953125 L 3.3125 -3.28125 L 3.015625 0.25 L 1.03125 0.078125 L 1.75 -8.53125 L 3.734375 -8.359375 L 3.453125 -4.96875 L 7.359375 -4.640625 L 7.640625 -8.03125 Z M 9.640625 -7.875 "/></g></g></g><g fill="#181b13" fill-opacity="1"><g transform="translate(190.727779, 262.699964)"><g><path d="M 4.84375 -3.5625 L 5.140625 -0.515625 L 3.15625 -0.3125 L 2.859375 -3.375 L -1.03125 -8.578125 L 1.078125 -8.78125 L 3.78125 -5.1875 L 5.671875 -9.25 L 7.625 -9.4375 Z M 4.84375 -3.5625 "/></g></g></g><g fill="#181b13" fill-opacity="1"><g transform="translate(203.621671, 260.927774)"><g/></g></g><g fill="#181b13" fill-opacity="1"><g transform="translate(211.52046, 258.853151)"><g><path d="M 0.28125 -7.640625 L 1.109375 -5.515625 L 4.828125 -6.96875 L 5.40625 -5.46875 L 1.6875 -4.015625 L 2.828125 -1.09375 L 0.96875 -0.375 L -2.15625 -8.421875 L 3.90625 -10.78125 L 4.484375 -9.28125 Z M 0.28125 -7.640625 "/></g></g></g><g fill="#181b13" fill-opacity="1"><g transform="translate(223.28467, 253.925912)"><g><path d="M 4.5 -2.609375 C 3.738281 -2.140625 2.953125 -1.878906 2.140625 -1.828125 C 1.328125 -1.773438 0.570312 -1.929688 -0.125 -2.296875 C -0.832031 -2.660156 -1.410156 -3.203125 -1.859375 -3.921875 C -2.304688 -4.648438 -2.53125 -5.40625 -2.53125 -6.1875 C -2.539062 -6.976562 -2.34375 -7.726562 -1.9375 -8.4375 C -1.53125 -9.144531 -0.945312 -9.734375 -0.1875 -10.203125 C 0.582031 -10.671875 1.375 -10.925781 2.1875 -10.96875 C 3 -11.019531 3.753906 -10.867188 4.453125 -10.515625 C 5.160156 -10.160156 5.738281 -9.617188 6.1875 -8.890625 C 6.632812 -8.171875 6.859375 -7.410156 6.859375 -6.609375 C 6.867188 -5.816406 6.671875 -5.066406 6.265625 -4.359375 C 5.859375 -3.660156 5.269531 -3.078125 4.5 -2.609375 Z M 3.609375 -4.0625 C 4.046875 -4.320312 4.375 -4.660156 4.59375 -5.078125 C 4.820312 -5.492188 4.925781 -5.941406 4.90625 -6.421875 C 4.894531 -6.910156 4.75 -7.378906 4.46875 -7.828125 C 4.1875 -8.285156 3.832031 -8.628906 3.40625 -8.859375 C 2.988281 -9.085938 2.539062 -9.191406 2.0625 -9.171875 C 1.59375 -9.160156 1.140625 -9.023438 0.703125 -8.765625 C 0.273438 -8.492188 -0.0507812 -8.148438 -0.28125 -7.734375 C -0.507812 -7.316406 -0.613281 -6.867188 -0.59375 -6.390625 C -0.570312 -5.910156 -0.421875 -5.441406 -0.140625 -4.984375 C 0.140625 -4.535156 0.488281 -4.191406 0.90625 -3.953125 C 1.320312 -3.722656 1.769531 -3.613281 2.25 -3.625 C 2.726562 -3.644531 3.179688 -3.789062 3.609375 -4.0625 Z M 3.609375 -4.0625 "/></g></g></g><g fill="#181b13" fill-opacity="1"><g transform="translate(236.084979, 245.455664)"><g><path d="M 3.890625 -3.4375 C 3.234375 -2.832031 2.515625 -2.421875 1.734375 -2.203125 C 0.953125 -1.992188 0.179688 -2 -0.578125 -2.21875 C -1.335938 -2.4375 -2.003906 -2.859375 -2.578125 -3.484375 C -3.160156 -4.109375 -3.535156 -4.804688 -3.703125 -5.578125 C -3.867188 -6.347656 -3.820312 -7.117188 -3.5625 -7.890625 C -3.3125 -8.671875 -2.859375 -9.363281 -2.203125 -9.96875 C -1.546875 -10.582031 -0.820312 -10.992188 -0.03125 -11.203125 C 0.757812 -11.410156 1.535156 -11.40625 2.296875 -11.1875 C 3.066406 -10.976562 3.742188 -10.5625 4.328125 -9.9375 C 4.898438 -9.3125 5.265625 -8.609375 5.421875 -7.828125 C 5.585938 -7.054688 5.535156 -6.285156 5.265625 -5.515625 C 5.003906 -4.742188 4.546875 -4.050781 3.890625 -3.4375 Z M 2.734375 -4.6875 C 3.109375 -5.039062 3.363281 -5.441406 3.5 -5.890625 C 3.644531 -6.347656 3.660156 -6.804688 3.546875 -7.265625 C 3.429688 -7.722656 3.195312 -8.148438 2.84375 -8.546875 C 2.46875 -8.941406 2.050781 -9.210938 1.59375 -9.359375 C 1.132812 -9.503906 0.675781 -9.519531 0.21875 -9.40625 C -0.238281 -9.300781 -0.65625 -9.070312 -1.03125 -8.71875 C -1.394531 -8.375 -1.648438 -7.972656 -1.796875 -7.515625 C -1.941406 -7.066406 -1.957031 -6.609375 -1.84375 -6.140625 C -1.726562 -5.679688 -1.484375 -5.253906 -1.109375 -4.859375 C -0.753906 -4.460938 -0.347656 -4.191406 0.109375 -4.046875 C 0.566406 -3.910156 1.023438 -3.894531 1.484375 -4 C 1.953125 -4.113281 2.367188 -4.34375 2.734375 -4.6875 Z M 2.734375 -4.6875 "/></g></g></g><g fill="#181b13" fill-opacity="1"><g transform="translate(246.949501, 234.624301)"><g><path d="M -6.421875 -5.875 L -4.125 -9.0625 C -3.582031 -9.820312 -2.957031 -10.390625 -2.25 -10.765625 C -1.539062 -11.140625 -0.804688 -11.300781 -0.046875 -11.25 C 0.710938 -11.195312 1.445312 -10.921875 2.15625 -10.421875 C 2.84375 -9.921875 3.332031 -9.316406 3.625 -8.609375 C 3.925781 -7.898438 4.015625 -7.148438 3.890625 -6.359375 C 3.765625 -5.566406 3.429688 -4.789062 2.890625 -4.03125 L 0.59375 -0.84375 Z M 1.5 -4.890625 C 2 -5.585938 2.203125 -6.285156 2.109375 -6.984375 C 2.023438 -7.691406 1.648438 -8.285156 0.984375 -8.765625 C 0.304688 -9.242188 -0.375 -9.410156 -1.0625 -9.265625 C -1.757812 -9.128906 -2.359375 -8.710938 -2.859375 -8.015625 L -3.921875 -6.546875 L 0.4375 -3.421875 Z M 1.5 -4.890625 "/></g></g></g><g fill="#181b13" fill-opacity="1"><g transform="translate(137.609181, 139.037076)"><g><path d="M 1.828125 -12.3125 L 7.09375 -5.46875 L 5.515625 -4.234375 L 3.359375 -7.046875 L 0.25 -4.65625 L 2.40625 -1.84375 L 0.8125 -0.625 L -4.453125 -7.46875 L -2.859375 -8.6875 L -0.78125 -5.984375 L 2.328125 -8.375 L 0.25 -11.078125 Z M 1.828125 -12.3125 "/></g></g></g><g fill="#181b13" fill-opacity="1"><g transform="translate(149.060921, 130.696335)"><g><path d="M 4.71875 -2.203125 C 3.914062 -1.804688 3.101562 -1.617188 2.28125 -1.640625 C 1.46875 -1.660156 0.726562 -1.878906 0.0625 -2.296875 C -0.59375 -2.722656 -1.113281 -3.316406 -1.5 -4.078125 C -1.882812 -4.835938 -2.046875 -5.609375 -1.984375 -6.390625 C -1.929688 -7.179688 -1.664062 -7.910156 -1.1875 -8.578125 C -0.71875 -9.242188 -0.0820312 -9.773438 0.71875 -10.171875 C 1.507812 -10.578125 2.3125 -10.769531 3.125 -10.75 C 3.945312 -10.726562 4.691406 -10.503906 5.359375 -10.078125 C 6.023438 -9.660156 6.550781 -9.070312 6.9375 -8.3125 C 7.320312 -7.550781 7.484375 -6.773438 7.421875 -5.984375 C 7.359375 -5.203125 7.085938 -4.476562 6.609375 -3.8125 C 6.140625 -3.144531 5.507812 -2.609375 4.71875 -2.203125 Z M 3.953125 -3.71875 C 4.398438 -3.945312 4.753906 -4.257812 5.015625 -4.65625 C 5.285156 -5.0625 5.429688 -5.5 5.453125 -5.96875 C 5.472656 -6.445312 5.363281 -6.925781 5.125 -7.40625 C 4.882812 -7.882812 4.566406 -8.257812 4.171875 -8.53125 C 3.773438 -8.800781 3.335938 -8.945312 2.859375 -8.96875 C 2.390625 -8.988281 1.929688 -8.882812 1.484375 -8.65625 C 1.023438 -8.425781 0.660156 -8.113281 0.390625 -7.71875 C 0.128906 -7.332031 -0.0078125 -6.898438 -0.03125 -6.421875 C -0.0507812 -5.941406 0.0546875 -5.460938 0.296875 -4.984375 C 0.535156 -4.503906 0.851562 -4.128906 1.25 -3.859375 C 1.644531 -3.597656 2.078125 -3.453125 2.546875 -3.421875 C 3.023438 -3.390625 3.492188 -3.488281 3.953125 -3.71875 Z M 3.953125 -3.71875 "/></g></g></g><g fill="#181b13" fill-opacity="1"><g transform="translate(162.240556, 124.477205)"><g><path d="M 8.578125 -2.3125 L 7.234375 -7.3125 L 5.875 -2.515625 L 5.015625 -2.28125 L 1.5 -5.65625 L 2.8125 -0.75 L 1 -0.265625 L -1.25 -8.609375 L 0.328125 -9.03125 L 4.859375 -4.6875 L 6.53125 -10.703125 L 8.109375 -11.125 L 10.390625 -2.796875 Z M 8.578125 -2.3125 "/></g></g></g><g fill="#181b13" fill-opacity="1"><g transform="translate(177.803945, 120.873375)"><g><path d="M 7.578125 -2.171875 L 7.703125 -0.5625 L 1.03125 -0.078125 L 0.390625 -8.6875 L 6.890625 -9.171875 L 7.015625 -7.578125 L 2.484375 -7.234375 L 2.625 -5.359375 L 6.640625 -5.65625 L 6.75 -4.109375 L 2.734375 -3.8125 L 2.875 -1.828125 Z M 7.578125 -2.171875 "/></g></g></g><g fill="#181b13" fill-opacity="1"><g transform="translate(190.363305, 120.315969)"><g><path d="M 3.65625 -6.71875 L 3.453125 -4.453125 L 7.4375 -4.09375 L 7.28125 -2.484375 L 3.296875 -2.84375 L 3.015625 0.28125 L 1.03125 0.09375 L 1.8125 -8.515625 L 8.296875 -7.921875 L 8.15625 -6.3125 Z M 3.65625 -6.71875 "/></g></g></g><g fill="#181b13" fill-opacity="1"><g transform="translate(202.421611, 121.679536)"><g><path d="M 4.984375 1.515625 C 4.117188 1.285156 3.390625 0.882812 2.796875 0.3125 C 2.203125 -0.25 1.800781 -0.910156 1.59375 -1.671875 C 1.382812 -2.429688 1.390625 -3.21875 1.609375 -4.03125 C 1.835938 -4.851562 2.234375 -5.535156 2.796875 -6.078125 C 3.367188 -6.628906 4.050781 -6.992188 4.84375 -7.171875 C 5.644531 -7.347656 6.476562 -7.320312 7.34375 -7.09375 C 8.207031 -6.851562 8.929688 -6.453125 9.515625 -5.890625 C 10.109375 -5.328125 10.515625 -4.660156 10.734375 -3.890625 C 10.953125 -3.128906 10.945312 -2.335938 10.71875 -1.515625 C 10.5 -0.703125 10.097656 -0.0234375 9.515625 0.515625 C 8.941406 1.054688 8.257812 1.414062 7.46875 1.59375 C 6.675781 1.78125 5.847656 1.753906 4.984375 1.515625 Z M 5.4375 -0.125 C 5.925781 0.0078125 6.394531 0.0195312 6.84375 -0.09375 C 7.300781 -0.21875 7.703125 -0.445312 8.046875 -0.78125 C 8.390625 -1.125 8.628906 -1.550781 8.765625 -2.0625 C 8.910156 -2.582031 8.921875 -3.070312 8.796875 -3.53125 C 8.679688 -4 8.457031 -4.398438 8.125 -4.734375 C 7.789062 -5.078125 7.378906 -5.316406 6.890625 -5.453125 C 6.398438 -5.585938 5.925781 -5.59375 5.46875 -5.46875 C 5.007812 -5.351562 4.609375 -5.125 4.265625 -4.78125 C 3.929688 -4.445312 3.691406 -4.019531 3.546875 -3.5 C 3.410156 -2.988281 3.398438 -2.5 3.515625 -2.03125 C 3.628906 -1.570312 3.851562 -1.171875 4.1875 -0.828125 C 4.53125 -0.492188 4.945312 -0.257812 5.4375 -0.125 Z M 5.4375 -0.125 "/></g></g></g><g fill="#181b13" fill-opacity="1"><g transform="translate(216.38432, 125.942983)"><g><path d="M 4.59375 2.453125 C 3.789062 2.046875 3.15625 1.507812 2.6875 0.84375 C 2.21875 0.1875 1.953125 -0.535156 1.890625 -1.328125 C 1.828125 -2.117188 1.984375 -2.890625 2.359375 -3.640625 C 2.742188 -4.398438 3.269531 -4.992188 3.9375 -5.421875 C 4.601562 -5.847656 5.34375 -6.070312 6.15625 -6.09375 C 6.96875 -6.125 7.773438 -5.9375 8.578125 -5.53125 C 9.378906 -5.132812 10.015625 -4.601562 10.484375 -3.9375 C 10.960938 -3.28125 11.234375 -2.550781 11.296875 -1.75 C 11.359375 -0.957031 11.195312 -0.179688 10.8125 0.578125 C 10.4375 1.328125 9.914062 1.910156 9.25 2.328125 C 8.582031 2.753906 7.835938 2.976562 7.015625 3 C 6.203125 3.03125 5.394531 2.847656 4.59375 2.453125 Z M 5.359375 0.921875 C 5.816406 1.140625 6.28125 1.238281 6.75 1.21875 C 7.226562 1.195312 7.660156 1.050781 8.046875 0.78125 C 8.441406 0.519531 8.757812 0.148438 9 -0.328125 C 9.238281 -0.816406 9.347656 -1.296875 9.328125 -1.765625 C 9.304688 -2.242188 9.160156 -2.679688 8.890625 -3.078125 C 8.628906 -3.472656 8.269531 -3.78125 7.8125 -4 C 7.351562 -4.226562 6.882812 -4.332031 6.40625 -4.3125 C 5.9375 -4.289062 5.503906 -4.144531 5.109375 -3.875 C 4.710938 -3.613281 4.394531 -3.238281 4.15625 -2.75 C 3.914062 -2.269531 3.804688 -1.789062 3.828125 -1.3125 C 3.859375 -0.84375 4.003906 -0.410156 4.265625 -0.015625 C 4.535156 0.378906 4.898438 0.691406 5.359375 0.921875 Z M 5.359375 0.921875 "/></g></g></g><g fill="#181b13" fill-opacity="1"><g transform="translate(229.264798, 132.823906)"><g><path d="M 6.078125 -6.234375 L 9.1875 -3.84375 C 9.9375 -3.269531 10.484375 -2.617188 10.828125 -1.890625 C 11.179688 -1.171875 11.316406 -0.429688 11.234375 0.328125 C 11.160156 1.085938 10.859375 1.8125 10.328125 2.5 C 9.804688 3.175781 9.1875 3.648438 8.46875 3.921875 C 7.757812 4.191406 7.007812 4.25 6.21875 4.09375 C 5.4375 3.945312 4.671875 3.585938 3.921875 3.015625 L 0.8125 0.625 Z M 4.84375 1.65625 C 5.53125 2.175781 6.222656 2.40625 6.921875 2.34375 C 7.617188 2.28125 8.21875 1.921875 8.71875 1.265625 C 9.21875 0.609375 9.410156 -0.0664062 9.296875 -0.765625 C 9.191406 -1.460938 8.796875 -2.070312 8.109375 -2.59375 L 6.671875 -3.703125 L 3.40625 0.546875 Z M 4.84375 1.65625 "/></g></g></g><g clip-path="url(#6ab9071b06)"><path fill="#80c244" d="M 208.257812 240.898438 C 205.679688 237.367188 202.742188 234.167969 199.445312 231.308594 C 196.144531 228.445312 192.570312 225.992188 188.71875 223.945312 C 186.910156 222.992188 185.058594 222.132812 183.160156 221.375 C 181.261719 220.617188 179.332031 219.964844 177.363281 219.414062 C 175.398438 218.863281 173.40625 218.417969 171.390625 218.078125 C 169.378906 217.742188 167.351562 217.511719 165.3125 217.390625 C 163.277344 217.269531 161.238281 217.257812 159.195312 217.351562 C 157.15625 217.449219 155.128906 217.65625 153.109375 217.96875 C 151.09375 218.28125 149.097656 218.703125 147.125 219.230469 C 145.152344 219.757812 143.210938 220.386719 141.304688 221.121094 C 142.226562 222.386719 143.203125 223.613281 144.226562 224.800781 C 145.25 225.988281 146.320312 227.132812 147.4375 228.230469 C 148.554688 229.328125 149.714844 230.382812 150.917969 231.386719 C 152.121094 232.390625 153.359375 233.34375 154.640625 234.246094 C 155.917969 235.148438 157.234375 235.996094 158.582031 236.789062 C 159.929688 237.585938 161.308594 238.324219 162.714844 239.003906 C 164.125 239.6875 165.558594 240.308594 167.015625 240.875 C 168.476562 241.4375 169.953125 241.941406 171.453125 242.382812 C 172.953125 242.828125 174.46875 243.207031 175.996094 243.527344 C 177.527344 243.84375 179.070312 244.101562 180.621094 244.292969 C 182.171875 244.484375 183.726562 244.613281 185.289062 244.679688 C 186.851562 244.746094 188.410156 244.746094 189.972656 244.683594 C 191.535156 244.621094 193.089844 244.492188 194.640625 244.300781 C 196.195312 244.109375 197.734375 243.855469 199.265625 243.539062 C 200.796875 243.222656 202.3125 242.84375 203.8125 242.402344 C 205.3125 241.960938 206.789062 241.460938 208.25 240.898438 Z M 208.257812 240.898438 " fill-opacity="1" fill-rule="evenodd"/></g><path fill="#80c244" d="M 208.230469 240.855469 L 208.230469 240.898438 C 212.867188 239.09375 217.199219 236.730469 221.230469 233.796875 C 225.257812 230.867188 228.851562 227.46875 232.003906 223.605469 C 228.851562 222.347656 225.613281 221.378906 222.289062 220.695312 C 218.96875 220.011719 215.609375 219.625 212.21875 219.539062 C 208.828125 219.453125 205.457031 219.664062 202.105469 220.175781 C 198.75 220.6875 195.46875 221.488281 192.253906 222.585938 C 198.875 227.53125 204.199219 233.621094 208.230469 240.855469 Z M 208.230469 240.855469 " fill-opacity="1" fill-rule="evenodd"/><g clip-path="url(#9a22e47abf)"><path fill="#ffffff" d="M 187.285156 244.722656 C 185.949219 243.132812 184.535156 241.621094 183.039062 240.183594 C 181.542969 238.75 179.976562 237.398438 178.332031 236.136719 C 176.691406 234.871094 174.988281 233.699219 173.21875 232.621094 C 171.453125 231.539062 169.632812 230.558594 167.757812 229.679688 C 165.886719 228.796875 163.972656 228.019531 162.015625 227.347656 C 160.058594 226.675781 158.070312 226.109375 156.054688 225.65625 C 154.035156 225.199219 152 224.851562 149.945312 224.617188 C 147.890625 224.382812 145.828125 224.261719 143.761719 224.25 L 144.128906 224.683594 C 147.652344 225.109375 151.109375 225.855469 154.496094 226.925781 C 157.882812 227.996094 161.144531 229.371094 164.277344 231.050781 C 167.410156 232.726562 170.359375 234.683594 173.132812 236.914062 C 175.90625 239.144531 178.449219 241.609375 180.765625 244.316406 C 181 244.316406 181.238281 244.375 181.484375 244.390625 C 181.730469 244.402344 182.074219 244.460938 182.378906 244.484375 C 183.675781 244.597656 184.984375 244.679688 186.3125 244.699219 C 186.632812 244.699219 186.957031 244.699219 187.285156 244.699219 Z M 187.285156 244.722656 " fill-opacity="1" fill-rule="evenodd"/></g><g clip-path="url(#21b7e0f3d0)"><path fill="#ffffff" d="M 153.832031 221.308594 C 155.917969 221.410156 157.988281 221.628906 160.046875 221.957031 C 162.109375 222.289062 164.144531 222.730469 166.15625 223.28125 C 168.167969 223.835938 170.144531 224.496094 172.085938 225.265625 C 174.023438 226.035156 175.917969 226.910156 177.765625 227.886719 C 179.609375 228.867188 181.398438 229.941406 183.125 231.113281 C 184.855469 232.289062 186.515625 233.554688 188.105469 234.910156 C 189.699219 236.265625 191.210938 237.703125 192.648438 239.226562 C 194.082031 240.746094 195.429688 242.34375 196.695312 244.011719 C 198.496094 243.730469 200.296875 243.351562 202.003906 242.902344 C 200.664062 241.214844 199.234375 239.609375 197.714844 238.085938 C 196.195312 236.558594 194.59375 235.125 192.914062 233.777344 C 191.234375 232.433594 189.484375 231.1875 187.664062 230.039062 C 185.847656 228.890625 183.96875 227.851562 182.035156 226.914062 C 180.097656 225.980469 178.117188 225.15625 176.089844 224.445312 C 174.058594 223.734375 172 223.140625 169.90625 222.660156 C 167.8125 222.183594 165.695312 221.824219 163.5625 221.585938 C 161.429688 221.347656 159.289062 221.226562 157.140625 221.230469 C 156.03125 221.230469 154.929688 221.230469 153.832031 221.308594 Z M 153.832031 221.308594 " fill-opacity="1" fill-rule="evenodd"/></g><path fill="#ffffff" d="M 200.203125 229.734375 C 205.960938 226.472656 212.101562 224.285156 218.617188 223.171875 C 211.511719 223.355469 204.679688 224.828125 198.121094 227.582031 C 198.832031 228.277344 199.523438 228.996094 200.203125 229.734375 Z M 200.203125 229.734375 " fill-opacity="1" fill-rule="evenodd"/><path fill="#ffffff" d="M 226.894531 227.523438 C 222.796875 227.632812 218.753906 228.179688 214.773438 229.160156 C 210.789062 230.144531 206.957031 231.542969 203.273438 233.355469 C 203.992188 234.234375 204.617188 235.136719 205.253906 236.050781 C 211.878906 231.699219 219.09375 228.859375 226.894531 227.523438 Z M 226.894531 227.523438 " fill-opacity="1" fill-rule="evenodd"/><g clip-path="url(#10d67e6080)"><path fill="#80c244" d="M 188.226562 157.871094 C 204.503906 154.078125 217.925781 145.933594 234.476562 153.527344 C 233.167969 151.671875 231.757812 149.90625 230.238281 148.21875 C 228.722656 146.535156 227.117188 144.945312 225.414062 143.449219 C 223.710938 141.957031 221.925781 140.570312 220.0625 139.285156 C 218.195312 138.003906 216.261719 136.835938 214.257812 135.785156 C 212.253906 134.734375 210.199219 133.804688 208.085938 132.996094 C 205.972656 132.1875 203.820312 131.507812 201.628906 130.957031 C 199.4375 130.402344 197.222656 129.984375 194.980469 129.695312 C 192.738281 129.40625 190.488281 129.25 188.226562 129.230469 L 187.636719 129.230469 C 185.019531 129.226562 182.414062 129.40625 179.816406 129.765625 C 177.222656 130.121094 174.664062 130.652344 172.144531 131.363281 C 169.621094 132.074219 167.160156 132.949219 164.757812 134 C 162.355469 135.046875 160.035156 136.253906 157.796875 137.621094 C 155.558594 138.988281 153.421875 140.5 151.390625 142.160156 C 149.359375 143.824219 147.449219 145.613281 145.660156 147.539062 C 143.871094 149.460938 142.222656 151.496094 140.710938 153.648438 C 139.199219 155.796875 137.839844 158.042969 136.636719 160.378906 C 136.636719 160.378906 141.679688 153.238281 150.726562 154.628906 C 156.039062 149.6875 167.390625 141.667969 186.664062 139.558594 C 186.664062 139.558594 166.859375 145.914062 157.21875 156.65625 C 169.148438 160.761719 179.144531 159.996094 188.226562 157.871094 Z M 188.226562 157.871094 " fill-opacity="1" fill-rule="evenodd"/></g><path fill="#ffffff" d="M 152.484375 145.890625 C 154.910156 143.761719 157.503906 141.871094 160.265625 140.214844 C 163.03125 138.558594 165.921875 137.164062 168.9375 136.035156 C 171.949219 134.902344 175.042969 134.054688 178.210938 133.488281 C 181.378906 132.917969 184.570312 132.640625 187.789062 132.65625 C 192.96875 132.632812 198.046875 133.351562 203.023438 134.804688 C 207.996094 136.257812 212.664062 138.394531 217.027344 141.203125 C 214.964844 139.546875 212.777344 138.070312 210.472656 136.777344 C 208.164062 135.488281 205.769531 134.394531 203.28125 133.503906 C 200.792969 132.613281 198.25 131.9375 195.648438 131.472656 C 193.050781 131.007812 190.429688 130.761719 187.789062 130.738281 L 187.269531 130.738281 C 184.007812 130.738281 180.785156 131.070312 177.589844 131.734375 C 174.398438 132.402344 171.308594 133.386719 168.316406 134.6875 C 165.324219 135.992188 162.496094 137.585938 159.828125 139.472656 C 157.164062 141.359375 154.714844 143.5 152.484375 145.890625 Z M 152.484375 145.890625 " fill-opacity="1" fill-rule="evenodd"/><path fill="#ffffff" d="M 162.199219 155.726562 C 167.824219 151.324219 174.027344 148.015625 180.808594 145.804688 C 183.238281 144.992188 185.707031 144.316406 188.214844 143.777344 C 185.753906 143.929688 183.328125 144.300781 180.9375 144.894531 C 178.546875 145.488281 176.226562 146.292969 173.980469 147.308594 C 171.730469 148.320312 169.59375 149.53125 167.5625 150.933594 C 165.53125 152.335938 163.640625 153.910156 161.894531 155.65625 Z M 162.199219 155.726562 " fill-opacity="1" fill-rule="evenodd"/><g fill="#181b13" fill-opacity="1"><g transform="translate(72.005104, 201.89526)"><g><path d="M 3.082031 0.65625 C 3.4375 0.707031 3.738281 0.453125 3.839844 0.101562 L 10.15625 -26.878906 L 10.105469 -3.535156 C 10.105469 -1.113281 12.023438 0.605469 14.449219 0.605469 L 14.703125 0.605469 L 28.746094 -27.839844 L 22.179688 -5.355469 C 21.269531 -2.222656 22.734375 -0.253906 25.867188 0 C 26.222656 0 26.523438 -0.253906 26.625 -0.554688 L 33.800781 -29.152344 C 34.8125 -33.34375 33.042969 -36.226562 29.457031 -36.375 C 28.496094 -36.425781 28.242188 -36.175781 27.6875 -35.0625 L 14.804688 -9.296875 L 14.753906 -29.554688 C 14.753906 -34.457031 13.589844 -36.226562 8.539062 -35.972656 C 8.234375 -35.921875 7.984375 -35.71875 7.882812 -35.417969 L -0.453125 -4.75 C -1.113281 -2.273438 0.253906 0.152344 3.082031 0.65625 Z M 3.082031 0.65625 "/></g></g></g><g fill="#181b13" fill-opacity="1"><g transform="translate(103.076035, 201.89526)"><g><path d="M 26.726562 -11.265625 C 26.574219 -11.367188 26.375 -11.316406 26.324219 -11.113281 C 24.148438 -3.992188 21.824219 -3.386719 20.210938 -3.386719 C 18.1875 -3.386719 17.9375 -4.851562 19.097656 -8.691406 L 22.078125 -18.695312 C 23.695312 -24.199219 22.433594 -25.96875 19.402344 -25.96875 C 19.097656 -25.96875 18.84375 -25.765625 18.746094 -25.464844 L 18.136719 -23.542969 C 17.277344 -25.414062 15.710938 -26.222656 14.246094 -25.714844 C 8.4375 -26.171875 4.597656 -21.21875 2.324219 -13.640625 C -0.757812 -3.335938 2.878906 2.980469 10.054688 0 C 11.113281 0 12.023438 -0.808594 12.882812 -2.070312 C 13.539062 0.101562 15.460938 0.808594 18.441406 0.808594 C 23.441406 0.808594 26.019531 -2.929688 27.890625 -8.691406 C 28.191406 -9.75 27.839844 -10.558594 26.726562 -11.265625 Z M 8.640625 -2.578125 C 5.859375 -3.890625 6.265625 -8.132812 7.730469 -13.035156 C 9.648438 -19.402344 12.277344 -22.484375 14.550781 -22.484375 C 16.925781 -22.484375 16.773438 -19.550781 15.359375 -15.003906 L 14.195312 -11.367188 C 13.792969 -10.15625 13.488281 -9.09375 13.238281 -8.082031 C 12.175781 -4.851562 10.207031 -2.171875 8.640625 -2.578125 Z M 8.640625 -2.578125 "/></g></g></g><g fill="#181b13" fill-opacity="1"><g transform="translate(127.427563, 201.89526)"><g><path d="M 22.632812 -11.265625 C 22.484375 -11.367188 22.28125 -11.316406 22.230469 -11.113281 C 20.613281 -5.910156 17.078125 -3.484375 14.148438 -2.777344 C 15.257812 -4.292969 16.320312 -6.515625 16.570312 -10.660156 C 16.722656 -13.742188 16.421875 -19.199219 14.148438 -23.191406 C 15.003906 -24.300781 15.460938 -25.414062 15.664062 -26.421875 C 16.015625 -28.191406 14.953125 -28.699219 13.238281 -28.699219 C 11.417969 -28.699219 10.207031 -27.433594 9.550781 -25.566406 C 8.742188 -23.242188 6.566406 -19.550781 1.414062 -10.457031 C 1.363281 -11.015625 1.363281 -11.570312 1.3125 -12.125 C 1.261719 -12.582031 0.910156 -12.933594 0.503906 -12.882812 C -1.261719 -12.582031 -2.679688 -11.367188 -2.679688 -8.691406 C -2.679688 -3.234375 1.515625 0.757812 9.09375 0.757812 C 15.664062 0.757812 21.21875 -0.808594 23.796875 -8.691406 C 24.101562 -9.75 23.746094 -10.558594 22.632812 -11.265625 Z M 6.417969 -2.222656 C 4.09375 -2.222656 2.878906 -3.484375 2.222656 -5.609375 L 10.660156 -21.21875 C 13.792969 -13.085938 10.105469 -2.222656 6.417969 -2.222656 Z M 6.417969 -2.222656 "/></g></g></g><g fill="#181b13" fill-opacity="1"><g transform="translate(147.686823, 201.89526)"><g><path d="M 15.511719 -11.265625 C 15.359375 -11.367188 15.15625 -11.316406 15.105469 -11.066406 C 12.933594 -3.992188 10.609375 -3.386719 8.992188 -3.386719 C 6.972656 -3.386719 5.660156 -4.851562 6.871094 -8.691406 C 8.941406 -15.054688 9.800781 -17.277344 11.214844 -21.824219 C 11.773438 -21.824219 12.328125 -21.875 12.832031 -21.875 L 16.015625 -21.976562 C 16.519531 -21.976562 16.875 -22.28125 16.722656 -22.734375 C 16.21875 -24.199219 15.054688 -25.664062 12.832031 -25.664062 L 12.328125 -25.664062 C 12.378906 -25.917969 12.480469 -26.121094 12.53125 -26.375 C 14.097656 -31.929688 12.582031 -33.648438 9.5 -33.648438 C 9.195312 -33.648438 8.941406 -33.445312 8.839844 -33.144531 C 7.933594 -30.011719 7.226562 -27.585938 6.566406 -25.464844 L 5.609375 -25.464844 C 4.34375 -25.464844 3.484375 -25.515625 2.628906 -25.515625 C 2.121094 -25.515625 1.667969 -25.3125 1.769531 -24.859375 C 2.070312 -23.441406 3.082031 -21.472656 4.902344 -21.523438 L 5.304688 -21.523438 C 4.34375 -18.695312 3.386719 -15.761719 1.96875 -11.367188 C -0.304688 -4.042969 1.769531 0.808594 7.226562 0.808594 C 12.226562 0.808594 14.753906 -2.929688 16.671875 -8.691406 C 16.976562 -9.699219 16.621094 -10.507812 15.511719 -11.265625 Z M 15.511719 -11.265625 "/></g></g></g><g fill="#181b13" fill-opacity="1"><g transform="translate(160.822499, 201.89526)"><g><path d="M 23.746094 -11.265625 C 23.59375 -11.367188 23.390625 -11.316406 23.34375 -11.066406 C 21.320312 -3.992188 17.226562 -3.386719 13.589844 -3.386719 C 10.308594 -3.386719 7.730469 -4.496094 7.324219 -8.035156 C 7.679688 -7.933594 8.082031 -7.882812 8.539062 -7.78125 C 12.480469 -7.074219 16.925781 -9.09375 19.804688 -14.953125 C 22.535156 -20.511719 20.613281 -25.765625 15.5625 -25.566406 C 10.308594 -26.929688 5.050781 -24.101562 2.527344 -14.753906 C -1.3125 -0.605469 8.234375 0.808594 11.824219 0.808594 C 19.199219 0.808594 23.191406 -2.929688 24.90625 -8.691406 C 25.210938 -9.75 24.859375 -10.558594 23.746094 -11.265625 Z M 13.339844 -22.988281 C 16.46875 -22.332031 16.773438 -20.410156 15.257812 -16.621094 C 13.589844 -13.085938 12.328125 -11.265625 7.527344 -11.621094 C 7.679688 -12.429688 7.882812 -13.289062 8.132812 -14.195312 C 9.75 -19.703125 11.015625 -22.734375 13.339844 -22.988281 Z M 13.339844 -22.988281 "/></g></g></g><g fill="#181b13" fill-opacity="1"><g transform="translate(182.193236, 201.89526)"><g><path d="M 1.3125 2.828125 C 1.515625 2.828125 1.71875 2.578125 1.820312 2.273438 L 8.792969 -20.410156 L 11.671875 -20.917969 C 12.429688 -21.066406 12.933594 -20.511719 12.730469 -19.753906 L 10.207031 -11.367188 C 7.984375 -4.042969 9.699219 0.808594 14.449219 0.808594 C 19.453125 0.808594 22.128906 -2.578125 23.898438 -8.691406 C 24.199219 -9.75 23.847656 -10.558594 22.734375 -11.265625 C 22.582031 -11.367188 22.382812 -11.316406 22.332031 -11.113281 C 20.160156 -3.992188 17.835938 -3.386719 16.21875 -3.386719 C 14.195312 -3.386719 14.046875 -4.851562 15.105469 -8.691406 L 17.683594 -18.238281 C 19.046875 -23.390625 18.1875 -25.261719 15.613281 -25.515625 C 13.085938 -25.515625 9.398438 -23.140625 8.792969 -23.039062 C 9.851562 -24.101562 11.015625 -29.203125 8.488281 -29.203125 C 6.265625 -29.203125 5.203125 -27.6875 4.546875 -25.664062 C 3.992188 -24 3.789062 -21.875 5.101562 -20.109375 L -0.859375 -3.386719 C -2.171875 0.304688 -0.757812 2.578125 1.3125 2.828125 Z M 1.3125 2.828125 "/></g></g></g><g fill="#181b13" fill-opacity="1"><g transform="translate(202.553544, 201.89526)"><g/></g></g><g fill="#181b13" fill-opacity="1"><g transform="translate(215.175207, 201.89526)"><g><path d="M 5.253906 0 C 5.660156 0.0507812 6.011719 -0.101562 6.113281 -0.503906 L 9.144531 -11.824219 L 17.480469 -12.582031 C 17.835938 -12.628906 18.136719 -12.882812 18.136719 -13.238281 C 18.136719 -15.511719 15.914062 -17.128906 13.035156 -16.824219 L 10.355469 -16.519531 L 13.945312 -29.960938 L 14.097656 -30.617188 C 16.46875 -30.921875 19.148438 -31.222656 20.613281 -31.273438 L 23.847656 -31.375 C 24.402344 -31.375 24.757812 -31.828125 24.605469 -32.386719 C 24.050781 -34.304688 22.886719 -36.175781 20.460938 -36.175781 C 17.9375 -36.175781 15.914062 -35.367188 11.113281 -35.367188 L 9.75 -35.367188 L 8.082031 -35.46875 C 7.527344 -35.570312 7.074219 -35.164062 7.175781 -34.609375 C 7.375 -33.445312 7.832031 -32.03125 8.640625 -31.121094 L 1.769531 -5.304688 C 1.113281 -2.828125 2.476562 -0.355469 5.253906 0 Z M 5.253906 0 "/></g></g></g><g fill="#181b13" fill-opacity="1"><g transform="translate(234.272465, 201.89526)"><g><path d="M 10.054688 0.707031 C 16.015625 0.65625 19.046875 -3.6875 21.421875 -11.773438 C 24.101562 -20.867188 20.664062 -27.988281 14.246094 -25.714844 C 8.4375 -26.171875 4.597656 -21.21875 2.324219 -13.640625 C -0.65625 -3.738281 2.425781 1.96875 10.054688 0.707031 Z M 8.640625 -1.917969 C 5.859375 -3.234375 6.265625 -8.132812 7.730469 -13.035156 C 9.648438 -19.402344 10.964844 -22.632812 13.339844 -22.988281 C 17.785156 -22.9375 17.53125 -17.226562 16.015625 -12.378906 C 13.4375 -4.09375 11.921875 -1.113281 8.640625 -1.917969 Z M 8.640625 -1.917969 "/></g></g></g><g fill="#181b13" fill-opacity="1"><g transform="translate(256.451561, 201.89526)"><g><path d="M 10.054688 0.707031 C 16.015625 0.65625 19.046875 -3.6875 21.421875 -11.773438 C 24.101562 -20.867188 20.664062 -27.988281 14.246094 -25.714844 C 8.4375 -26.171875 4.597656 -21.21875 2.324219 -13.640625 C -0.65625 -3.738281 2.425781 1.96875 10.054688 0.707031 Z M 8.640625 -1.917969 C 5.859375 -3.234375 6.265625 -8.132812 7.730469 -13.035156 C 9.648438 -19.402344 10.964844 -22.632812 13.339844 -22.988281 C 17.785156 -22.9375 17.53125 -17.226562 16.015625 -12.378906 C 13.4375 -4.09375 11.921875 -1.113281 8.640625 -1.917969 Z M 8.640625 -1.917969 "/></g></g></g><g fill="#181b13" fill-opacity="1"><g transform="translate(278.630657, 201.89526)"><g><path d="M 26.726562 -11.265625 C 26.574219 -11.367188 26.375 -11.316406 26.324219 -11.113281 C 24.148438 -3.992188 21.824219 -3.386719 20.210938 -3.386719 C 18.1875 -3.386719 17.988281 -4.800781 19.097656 -8.691406 L 25.210938 -30.363281 C 26.777344 -35.871094 25.566406 -37.640625 22.535156 -37.640625 C 22.230469 -37.640625 21.976562 -37.4375 21.875 -37.132812 L 17.9375 -23.847656 C 17.027344 -25.363281 15.613281 -26.019531 14.246094 -25.714844 C 8.4375 -26.171875 4.597656 -21.21875 2.324219 -13.640625 C -0.757812 -3.335938 2.878906 2.980469 10.054688 0 C 11.015625 0.0507812 12.023438 -0.859375 12.933594 -2.222656 C 13.4375 0.101562 15.308594 0.808594 18.441406 0.808594 C 23.441406 0.808594 26.019531 -2.929688 27.890625 -8.691406 C 28.191406 -9.75 27.839844 -10.558594 26.726562 -11.265625 Z M 8.640625 -2.578125 C 5.859375 -3.890625 6.265625 -8.132812 7.730469 -13.035156 C 9.648438 -19.402344 12.277344 -22.484375 14.550781 -22.484375 C 16.421875 -22.484375 16.722656 -20.664062 16.066406 -17.683594 L 14.195312 -11.367188 C 13.996094 -10.660156 13.792969 -10.003906 13.640625 -9.398438 C 12.679688 -5.609375 10.40625 -2.121094 8.640625 -2.578125 Z M 8.640625 -2.578125 "/></g></g></g></svg>